<?xml version="1.0" encoding="UTF-8"?>
<svg id="Capa_1" xmlns="http://www.w3.org/2000/svg" version="1.1" viewBox="0 0 512 512">
  <!-- Generator: Adobe Illustrator 29.1.0, SVG Export Plug-In . SVG Version: 2.1.0 Build 142)  -->
  <path d="M412,0H100C44.9,0,0,44.9,0,100v232c0,55.1,44.9,100,100,100h136v40h-60c-11,0-20,9-20,20s9,20,20,20h160c11,0,20-9,20-20s-9-20-20-20h-60v-60c0-11-9-20-20-20H100c-33.1,0-60-26.9-60-60V100c0-33.1,26.9-60,60-60h312c33.1,0,60,26.9,60,60v232c0,33.1-26.9,60-60,60h-76c-11,0-20,9-20,20s9,20,20,20h76c55.1,0,100-44.9,100-100V100c0-55.1-44.9-100-100-100Z"/>
  <path d="M396,216c0-77.2-62.8-140-140-140s-140,62.8-140,140,62.8,140,140,140,140-62.8,140-140ZM354,196h-38.5c-1.3-24.3-4.9-47.7-11-67.4,25.1,14,43.6,38.4,49.5,67.4ZM236.6,236h38.8c-2.5,43.4-13,70-19.4,78.2-6.5-8.2-16.9-34.8-19.4-78.2ZM236.6,196c2.5-43.4,13-70,19.4-78.2,6.5,8.2,16.9,34.8,19.4,78.2h-38.8ZM207.5,128.6c-6.1,19.7-9.7,43.2-11,67.4h-38.5c5.9-29,24.4-53.4,49.5-67.4ZM158,236h38.5c1.3,24.3,4.9,47.7,11,67.4-25.1-14-43.6-38.4-49.5-67.4ZM304.5,303.4c6.1-19.7,9.7-43.2,11-67.4h38.5c-5.9,29-24.4,53.4-49.5,67.4Z"/>
</svg>