<?xml version="1.0" encoding="UTF-8"?>
<svg id="svg2253" xmlns="http://www.w3.org/2000/svg" version="1.1" viewBox="0 0 682.7 682.7">
  <!-- Generator: Adobe Illustrator 29.1.0, SVG Export Plug-In . SVG Version: 2.1.0 Build 142)  -->
  <defs>
    <style>
      .st0 {
        fill: none;
      }

      .st1 {
        fill: #ffdb01;
      }
    </style>
  </defs>
  <path class="st0" d="M616.4,420.9c-8.3-8.3-19.4-12.9-31.1-12.9s-22.8,4.6-31.1,12.9l-93.5,93.5c-19.5,19.6-32.7,44.2-38.2,71.3l-7.3,36.3,36.3-7.3c27.1-5.4,51.8-18.6,71.3-38.2l93.5-93.5c8.3-8.3,12.9-19.4,12.9-31.1s-4.6-22.8-12.9-31.1h0Z"/>
  <path class="st0" d="M257.3,186.7c0-14.7-12-26.7-26.7-26.7s-26.7,12-26.7,26.7,12,26.7,26.7,26.7,26.7-12,26.7-26.7Z"/>
  <path class="st0" d="M0,0v682.7h682.7V0H0ZM157.3,472c-14.7,0-26.7-11.9-26.7-26.7s11.9-26.7,26.7-26.7h194.7c14.7,0,26.7,11.9,26.7,26.7s-11.9,26.7-26.7,26.7h-194.7ZM272,538.7c0,14.7-11.9,26.7-26.7,26.7h-88c-14.7,0-26.7-11.9-26.7-26.7s11.9-26.7,26.7-26.7h88c14.7,0,26.7,11.9,26.7,26.7ZM222.2,296h16.9c29.8,0,58.2,11,80.1,30.9,10.9,9.9,11.7,26.8,1.8,37.7-5.3,5.8-12.5,8.7-19.7,8.7s-12.8-2.3-17.9-6.9c-12.1-11-27.8-17.1-44.3-17.1h-16.9c-16.4,0-32.2,6.1-44.3,17.1-10.9,9.9-27.8,9.1-37.7-1.8s-9.1-27.8,1.8-37.7c21.9-20,50.4-30.9,80.1-30.9h.1ZM150.7,186.7c0-44.1,35.9-80,80-80s80,35.9,80,80-35.9,80-80,80-80-35.9-80-80h0ZM384,232h165.3c14.7,0,26.7,11.9,26.7,26.7s-11.9,26.7-26.7,26.7h-165.3c-14.7,0-26.7-11.9-26.7-26.7s11.9-26.7,26.7-26.7h0ZM357.3,165.3c0-14.7,11.9-26.7,26.7-26.7h165.3c14.7,0,26.7,11.9,26.7,26.7s-11.9,26.7-26.7,26.7h-165.3c-14.7,0-26.7-11.9-26.7-26.7ZM654.2,520.8l-93.5,93.5c-27,27-61.1,45.3-98.6,52.7l-75.5,15.1c-1.7.3-3.5.5-5.2.5-7,0-13.8-2.8-18.9-7.8-6.3-6.3-9-15.3-7.3-24.1l15.1-75.5c7.5-37.5,25.7-71.5,52.7-98.6l93.5-93.5c18.4-18.4,42.8-28.5,68.8-28.5s50.4,10.1,68.8,28.5h0c18.4,18.4,28.5,42.8,28.5,68.8s-10.1,50.4-28.5,68.8h.1ZM682.7,293.3c0,14.7-11.9,26.7-26.7,26.7s-26.7-11.9-26.7-26.7v-133.3c0-58.8-47.8-106.7-106.7-106.7H160c-58.8,0-106.7,47.8-106.7,106.7v362.7c0,58.8,47.8,106.7,106.7,106.7h114.7c14.7,0,26.7,11.9,26.7,26.7s-11.9,26.7-26.7,26.7h-114.7c-88.2-.1-160-71.9-160-160.1V160C0,71.8,71.8,0,160,0h362.7c88.2,0,160,71.8,160,160v133.3Z"/>
  <path class="st1" d="M522.7,0H160C71.8,0,0,71.8,0,160v362.7c0,88.2,71.8,160,160,160h114.7c14.7,0,26.7-11.9,26.7-26.7s-11.9-26.7-26.7-26.7h-114.7c-58.8,0-106.7-47.8-106.7-106.7V160c0-58.8,47.8-106.7,106.7-106.7h362.7c58.8,0,106.7,47.8,106.7,106.7v133.3c0,14.7,11.9,26.7,26.7,26.7s26.7-11.9,26.7-26.7v-133.3c-.1-88.2-71.9-160-160.1-160Z"/>
  <path class="st1" d="M310.7,186.7c0-44.1-35.9-80-80-80s-80,35.9-80,80,35.9,80,80,80,80-35.9,80-80h0ZM204,186.7c0-14.7,12-26.7,26.7-26.7s26.7,12,26.7,26.7-12,26.7-26.7,26.7-26.7-12-26.7-26.7Z"/>
  <path class="st1" d="M384,285.3h165.3c14.7,0,26.7-11.9,26.7-26.7s-11.9-26.7-26.7-26.7h-165.3c-14.7,0-26.7,11.9-26.7,26.7s11.9,26.7,26.7,26.7Z"/>
  <path class="st1" d="M378.7,445.3c0-14.7-11.9-26.7-26.7-26.7h-194.7c-14.7,0-26.7,11.9-26.7,26.7s11.9,26.7,26.7,26.7h194.7c14.7,0,26.7-11.9,26.7-26.7Z"/>
  <path class="st1" d="M157.3,512c-14.7,0-26.7,11.9-26.7,26.7s11.9,26.7,26.7,26.7h88c14.7,0,26.7-11.9,26.7-26.7s-11.9-26.7-26.7-26.7h-88Z"/>
  <path class="st1" d="M654.2,383.2c-18.4-18.4-42.8-28.5-68.8-28.5s-50.4,10.1-68.8,28.5l-93.5,93.5c-27,27-45.3,61.1-52.7,98.6l-15.1,75.5c-1.7,8.7,1,17.8,7.3,24.1,5.1,5,11.9,7.8,18.9,7.8s3.5-.2,5.2-.5l75.5-15.1c37.5-7.5,71.6-25.7,98.6-52.7l93.5-93.5c18.4-18.4,28.5-42.8,28.5-68.8s-10.1-50.4-28.5-68.8h0ZM616.4,483.1l-93.5,93.5c-19.5,19.5-44.2,32.7-71.3,38.2l-36.3,7.3,7.3-36.3c5.4-27.1,18.6-51.8,38.2-71.3l93.5-93.5c8.3-8.3,19.4-12.9,31.1-12.9s22.8,4.6,31.1,12.9h0c8.3,8.3,12.9,19.4,12.9,31.1s-4.6,22.8-12.9,31.1h0Z"/>
  <path class="st1" d="M384,192h165.3c14.7,0,26.7-11.9,26.7-26.7s-11.9-26.7-26.7-26.7h-165.3c-14.7,0-26.7,11.9-26.7,26.7s11.9,26.7,26.7,26.7Z"/>
  <path class="st1" d="M140.3,364.6c9.9,10.9,26.8,11.7,37.7,1.8,12.1-11,27.8-17.1,44.3-17.1h16.9c16.4,0,32.2,6.1,44.3,17.1,5.1,4.6,11.5,6.9,17.9,6.9s14.5-2.9,19.7-8.7c9.9-10.9,9.1-27.8-1.8-37.7-21.9-20-50.4-30.9-80.1-30.9h-16.9c-29.8,0-58.2,11-80.1,30.9-10.9,9.9-11.7,26.8-1.8,37.7h-.1Z"/>
</svg>