<?xml version="1.0" encoding="UTF-8"?>
<svg id="svg2205" xmlns="http://www.w3.org/2000/svg" xmlns:xlink="http://www.w3.org/1999/xlink" viewBox="0 0 682.67 682.67">
  <defs>
    <clipPath id="clippath">
      <rect x="0" y="0" width="682.67" height="682.67" style="fill: none;"/>
    </clipPath>
  </defs>
  <g id="g2211">
    <g id="g2213">
      <g style="clip-path: url(#clippath);">
        <g id="g2215">
          <g id="g2221">
            <path id="path2223" d="M619.75,456.29l-10.32-65.93c-4.38-31.27-21.63-59.47-47.94-76.93-18-11.94-40.68-18.76-63.41-18.76s-45.42,6.82-63.42,18.76c-26.31,17.45-43.56,45.66-47.94,76.93l-10.27,66.19c-20.11,4.61-35.11,22.61-35.11,44.11,0,25,20.27,46.01,45.27,46.01h224.12c25,0,45.27-21.01,45.27-46.01,0-21.91-15.57-40.18-36.25-44.37Z" style="fill: none; stroke: #000; stroke-linecap: round; stroke-linejoin: round; stroke-width: 53.33px;"/>
          </g>
          <g id="g2225">
            <path id="path2227" d="M478.67,448h36" style="fill: none; stroke: #000; stroke-linecap: round; stroke-linejoin: round; stroke-width: 53.33px;"/>
          </g>
          <g id="g2229">
            <path id="path2231" d="M590.67,210.67v-64.51c0-65.99-53.5-119.49-119.49-119.49H146.16c-65.99,0-119.49,53.5-119.49,119.49v325.02c0,65.99,53.5,119.49,119.49,119.49h125.84" style="fill: none; stroke: #000; stroke-linecap: round; stroke-linejoin: round; stroke-width: 53.33px;"/>
          </g>
          <g id="g2233">
            <path id="path2235" d="M300.3,317.03l-118.97,118.97" style="fill: none; stroke: #000; stroke-linecap: round; stroke-linejoin: round; stroke-width: 53.33px;"/>
          </g>
          <g id="g2237">
            <path id="path2239" d="M310.67,169.33v109.93" style="fill: none; stroke: #000; stroke-linecap: round; stroke-linejoin: round; stroke-width: 53.33px;"/>
          </g>
          <g id="g2241">
            <path id="path2243" d="M349.33,308c0-22.09-17.91-40-40-40s-40,17.91-40,40,17.91,40,40,40,40-17.91,40-40"/>
          </g>
          <g id="g2245">
            <path id="path2247" d="M460.04,621.33c2.33,19.7,19.34,34.67,40,34.67s37.67-14.97,40-34.67" style="fill: none; stroke: #000; stroke-linecap: round; stroke-linejoin: round; stroke-width: 53.33px;"/>
          </g>
        </g>
      </g>
    </g>
  </g>
</svg>