<?xml version="1.0" encoding="UTF-8"?>
<svg id="svg2205" xmlns="http://www.w3.org/2000/svg" xmlns:xlink="http://www.w3.org/1999/xlink" version="1.1" viewBox="0 0 682.7 682.7">
  <!-- Generator: Adobe Illustrator 29.1.0, SVG Export Plug-In . SVG Version: 2.1.0 Build 142)  -->
  <defs>
    <style>
      .st0 {
        fill: none;
      }

      .st1 {
        fill: #ffdb01;
      }

      .st2 {
        clip-path: url(#clippath);
      }
    </style>
    <clipPath id="clippath">
      <rect class="st0" width="682.7" height="682.7"/>
    </clipPath>
  </defs>
  <g id="g2211">
    <g id="g2213">
      <g class="st2">
        <g id="g2215">
          <g id="g2221">
            <g id="path2223">
              <path class="st1" d="M610.7,573.3h-224.1c-39.7,0-71.9-32.6-71.9-72.7s5.7-32.4,15.9-45.1c6-7.5,13.5-13.6,21.8-18.1l7.9-50.9c5.5-39.1,27.2-73.8,59.6-95.2,22.6-15,50.3-23.2,78.2-23.2s55.6,8.2,78.1,23.2c32.3,21.5,54,56.2,59.6,95.2l7.9,50.3c23.4,12.1,39,36.6,39,63.9,0,40.1-32.3,72.7-71.9,72.7h0ZM498.1,321.3c-17.2,0-35,5.2-48.7,14.3-19.7,13.1-32.9,34.3-36.3,58.4v.4l-10.3,66.2c-1.7,10.8-9.8,19.5-20.4,21.9-8.3,1.9-14.4,9.5-14.4,18.1s8.5,19.3,18.6,19.3h224.1c10.1,0,18.6-8.9,18.6-19.3s-6.3-16.5-14.9-18.2c-10.9-2.2-19.3-11-21-22l-10.3-65.9v-.4c-3.4-24.1-16.6-45.3-36.3-58.4-13.7-9.1-31.5-14.3-48.7-14.3h0Z"/>
            </g>
          </g>
          <g id="g2225">
            <g id="path2227">
              <path class="st1" d="M514.7,474.7h-36c-14.7,0-26.7-11.9-26.7-26.7s11.9-26.7,26.7-26.7h36c14.7,0,26.7,11.9,26.7,26.7s-11.9,26.7-26.7,26.7Z"/>
            </g>
          </g>
          <g id="g2229">
            <g id="path2231">
              <path class="st1" d="M272,617.3h-125.8C65.6,617.3,0,551.8,0,471.2V146.2C0,65.6,65.6,0,146.2,0h325c80.6,0,146.2,65.6,146.2,146.2v64.5c0,14.7-11.9,26.7-26.7,26.7s-26.7-11.9-26.7-26.7v-64.5c0-51.2-41.6-92.8-92.8-92.8H146.2c-51.2,0-92.8,41.6-92.8,92.8v325c0,51.2,41.6,92.8,92.8,92.8h125.8c14.7,0,26.7,11.9,26.7,26.7s-11.9,26.7-26.7,26.7h0Z"/>
            </g>
          </g>
          <g id="g2233">
            <g id="path2235">
              <path class="st1" d="M181.3,462.7c-6.8,0-13.6-2.6-18.9-7.8-10.4-10.4-10.4-27.3,0-37.7l119-119c10.4-10.4,27.3-10.4,37.7,0s10.4,27.3,0,37.7l-119,119c-5.2,5.2-12,7.8-18.9,7.8h0Z"/>
            </g>
          </g>
          <g id="g2237">
            <g id="path2239">
              <path class="st1" d="M310.7,305.9c-14.7,0-26.7-11.9-26.7-26.7v-109.9c0-14.7,11.9-26.7,26.7-26.7s26.7,11.9,26.7,26.7v109.9c0,14.7-11.9,26.7-26.7,26.7Z"/>
            </g>
          </g>
          <g id="g2241">
            <g id="path2243">
              <path class="st1" d="M349.3,308c0-22.1-17.9-40-40-40s-40,17.9-40,40,17.9,40,40,40,40-17.9,40-40"/>
            </g>
          </g>
          <g id="g2245">
            <g id="path2247">
              <path class="st1" d="M500,682.7c-34,0-62.6-25-66.5-58.2-1.7-14.6,8.7-27.9,23.3-29.6,14.6-1.7,27.9,8.7,29.6,23.3.8,6.3,6.6,11.1,13.5,11.1s12.8-4.8,13.5-11.1c1.7-14.6,15-25.1,29.6-23.3,14.6,1.7,25.1,15,23.3,29.6-3.9,33.2-32.5,58.2-66.5,58.2h.2Z"/>
            </g>
          </g>
        </g>
      </g>
    </g>
  </g>
</svg>