<?xml version="1.0" encoding="UTF-8"?>
<svg id="Capa_1" data-name="Capa 1" xmlns="http://www.w3.org/2000/svg" viewBox="0 0 512 512">
  <path d="M286,492H120c-55.23,0-100-44.77-100-100v-164c0-55.23,44.77-100,100-100h272c55.23,0,100,44.77,100,100v53M389,227h0M303,227h0M217,227h0M131,227h0M217,314h0M131,314h0M217,400h0M131,400h0M364,288c41.42,0,75,33.58,75,75s-33.58,75-75,75-75-33.58-75-75,33.58-75,75-75ZM492,492l-28-28M182,60c0-22.09-17.91-40-40-40s-40,17.91-40,40M412,60c0-22.09-17.91-40-40-40s-40,17.91-40,40" style="fill: none; stroke: #000; stroke-linecap: round; stroke-linejoin: round; stroke-width: 40px;"/>
</svg>