<?xml version="1.0" encoding="UTF-8"?>
<svg id="Capa_1" xmlns="http://www.w3.org/2000/svg" version="1.1" viewBox="0 0 512 512">
  <!-- Generator: Adobe Illustrator 29.1.0, SVG Export Plug-In . SVG Version: 2.1.0 Build 142)  -->
  <path d="M286,512H120c-66.2,0-120-53.8-120-120v-164c0-66.2,53.8-120,120-120h272c66.2,0,120,53.8,120,120v53c0,11-9,20-20,20s-20-9-20-20v-53c0-44.1-35.9-80-80-80H120c-44.1,0-80,35.9-80,80v164c0,44.1,35.9,80,80,80h166c11,0,20,9,20,20s-9,20-20,20Z"/>
  <path d="M389,247c-.7,0-1.3,0-2-.1-.6,0-1.3-.2-1.9-.3-.6-.1-1.3-.3-1.9-.5-.6-.2-1.2-.4-1.8-.7-.6-.2-1.2-.5-1.8-.8-.6-.3-1.1-.6-1.7-1-.5-.4-1.1-.8-1.6-1.2-.5-.4-1-.9-1.5-1.3s-.9-.9-1.3-1.5c-.4-.5-.8-1-1.2-1.6-.4-.5-.7-1.1-1-1.7-.3-.6-.6-1.2-.8-1.8s-.5-1.2-.7-1.8c-.2-.6-.4-1.3-.5-1.9-.1-.6-.2-1.3-.3-1.9,0-.6,0-1.3,0-2s0-1.3,0-2c0-.6.2-1.3.3-1.9.1-.6.3-1.3.5-1.9.2-.6.4-1.2.7-1.8.2-.6.5-1.2.8-1.8.3-.6.6-1.1,1-1.7.4-.6.8-1.1,1.2-1.6.4-.5.9-1,1.3-1.5s1-.9,1.5-1.3c.5-.4,1-.8,1.6-1.2.5-.4,1.1-.7,1.7-1,.6-.3,1.2-.6,1.8-.8.6-.2,1.2-.5,1.8-.7.6-.2,1.3-.3,1.9-.5.6-.1,1.3-.2,1.9-.3,1.3-.1,2.6-.1,3.9,0,.6,0,1.3.2,1.9.3.6.1,1.3.3,1.9.5.6.2,1.2.4,1.8.7.6.2,1.2.5,1.8.8.6.3,1.1.6,1.7,1,.5.4,1.1.8,1.6,1.2.5.4,1,.9,1.5,1.3s.9,1,1.3,1.5c.4.5.8,1,1.2,1.6.4.5.7,1.1,1,1.7.3.6.6,1.2.8,1.8.2.6.5,1.2.7,1.8.2.6.3,1.3.5,1.9.1.6.2,1.3.3,1.9,0,.7.1,1.3.1,2s0,1.3-.1,2c0,.6-.2,1.3-.3,1.9-.1.6-.3,1.3-.5,1.9-.2.6-.4,1.2-.7,1.8s-.5,1.2-.8,1.8c-.3.6-.6,1.1-1,1.7-.4.6-.8,1.1-1.2,1.6-.4.5-.9,1-1.3,1.5s-1,.9-1.5,1.3c-.5.4-1,.8-1.6,1.2-.5.4-1.1.7-1.7,1-.6.3-1.2.6-1.8.8-.6.2-1.2.5-1.8.7-.6.2-1.3.4-1.9.5-.6.1-1.3.2-1.9.3-.7,0-1.3.1-2,.1Z"/>
  <path d="M303,247c-.7,0-1.3,0-2-.1-.6,0-1.3-.2-1.9-.3-.6-.1-1.3-.3-1.9-.5-.6-.2-1.2-.4-1.8-.7-.6-.2-1.2-.5-1.8-.8-.6-.3-1.1-.6-1.7-1-.5-.4-1.1-.8-1.6-1.2-.5-.4-1-.9-1.5-1.3s-.9-.9-1.3-1.5c-.4-.5-.8-1-1.2-1.6-.4-.5-.7-1.1-1-1.7-.3-.6-.6-1.2-.8-1.8s-.5-1.2-.7-1.8c-.2-.6-.4-1.3-.5-1.9-.1-.6-.2-1.3-.3-1.9,0-.6,0-1.3,0-2s0-1.3,0-2c0-.6.2-1.3.3-1.9.1-.6.3-1.3.5-1.9.2-.6.4-1.2.7-1.8.2-.6.5-1.2.8-1.8.3-.6.6-1.1,1-1.7.4-.6.8-1.1,1.2-1.6.4-.5.9-1,1.3-1.5s1-.9,1.5-1.3c.5-.4,1-.8,1.6-1.2.5-.4,1.1-.7,1.7-1,.6-.3,1.2-.6,1.8-.8.6-.2,1.2-.5,1.8-.7.6-.2,1.3-.3,1.9-.5.6-.1,1.3-.2,1.9-.3,1.3-.1,2.6-.1,3.9,0,.7,0,1.3.2,1.9.3.6.1,1.3.3,1.9.5.6.2,1.2.4,1.8.7.6.2,1.2.5,1.8.8.6.3,1.1.6,1.7,1,.5.4,1.1.8,1.6,1.2.5.4,1,.9,1.5,1.3s.9,1,1.3,1.5c.4.5.8,1,1.2,1.6.4.5.7,1.1,1,1.7.3.6.6,1.2.8,1.8.2.6.5,1.2.7,1.8.2.6.3,1.3.5,1.9.1.6.2,1.3.3,1.9,0,.7.1,1.3.1,2s0,1.3-.1,2c0,.6-.2,1.3-.3,1.9-.1.6-.3,1.3-.5,1.9-.2.6-.4,1.2-.7,1.8s-.5,1.2-.8,1.8c-.3.6-.6,1.1-1,1.7-.4.6-.8,1.1-1.2,1.6-.4.5-.9,1-1.3,1.5s-1,.9-1.5,1.3c-.5.4-1,.8-1.6,1.2-.5.4-1.1.7-1.7,1-.6.3-1.2.6-1.8.8-.6.2-1.2.5-1.8.7-.6.2-1.3.4-1.9.5-.6.1-1.3.2-1.9.3-.7,0-1.3.1-2,.1Z"/>
  <path d="M217,247c-.7,0-1.3,0-2-.1-.6,0-1.3-.2-1.9-.3-.6-.1-1.3-.3-1.9-.5-.6-.2-1.2-.4-1.8-.7-.6-.2-1.2-.5-1.8-.8-.6-.3-1.1-.6-1.7-1-.6-.4-1.1-.8-1.6-1.2-.5-.4-1-.9-1.5-1.3s-.9-.9-1.3-1.5c-.4-.5-.8-1-1.2-1.6-.4-.5-.7-1.1-1-1.7-.3-.6-.6-1.2-.8-1.8s-.5-1.2-.7-1.8c-.2-.6-.3-1.3-.5-1.9-.1-.6-.2-1.3-.3-1.9,0-.7,0-1.3,0-2s0-1.3,0-2c0-.6.2-1.3.3-1.9.1-.6.3-1.3.5-1.9.2-.6.4-1.2.7-1.8.2-.6.5-1.2.8-1.8.3-.6.6-1.1,1-1.7.4-.6.8-1.1,1.2-1.6.4-.5.9-1,1.3-1.5s1-.9,1.5-1.3c.5-.4,1-.8,1.6-1.2.5-.4,1.1-.7,1.7-1,.6-.3,1.2-.6,1.8-.8.6-.2,1.2-.5,1.8-.7.6-.2,1.3-.3,1.9-.5.6-.1,1.3-.2,1.9-.3,1.3-.1,2.6-.1,3.9,0,.6,0,1.3.2,1.9.3.6.1,1.3.3,1.9.5.6.2,1.2.4,1.8.7s1.2.5,1.8.8c.6.3,1.1.6,1.7,1,.6.4,1.1.8,1.6,1.2.5.4,1,.9,1.5,1.3s.9,1,1.3,1.5c.4.5.8,1,1.2,1.6.4.5.7,1.1,1,1.7.3.6.6,1.2.8,1.8.2.6.5,1.2.7,1.8.2.6.4,1.3.5,1.9.1.6.2,1.3.3,1.9,0,.7.1,1.3.1,2s0,1.3-.1,2c0,.6-.2,1.3-.3,1.9-.1.6-.3,1.3-.5,1.9-.2.6-.4,1.2-.7,1.8s-.5,1.2-.8,1.8c-.3.6-.6,1.1-1,1.7-.4.6-.8,1.1-1.2,1.6-.4.5-.9,1-1.3,1.5s-.9.9-1.5,1.3c-.5.4-1,.8-1.6,1.2-.5.4-1.1.7-1.7,1-.6.3-1.2.6-1.8.8s-1.2.5-1.8.7c-.6.2-1.3.4-1.9.5-.6.1-1.3.2-1.9.3-.7,0-1.3.1-2,.1Z"/>
  <path d="M131,247c-.7,0-1.3,0-2-.1-.6,0-1.3-.2-1.9-.3-.6-.1-1.3-.3-1.9-.5-.6-.2-1.2-.4-1.8-.7-.6-.2-1.2-.5-1.8-.8-.6-.3-1.1-.6-1.7-1-.6-.4-1.1-.8-1.6-1.2-.5-.4-1-.9-1.5-1.3s-.9-.9-1.3-1.5c-.4-.5-.8-1-1.2-1.6-.4-.5-.7-1.1-1-1.7-.3-.6-.6-1.2-.8-1.8s-.5-1.2-.7-1.8c-.2-.6-.3-1.3-.5-1.9-.1-.6-.2-1.3-.3-1.9,0-.7,0-1.3,0-2s0-1.3,0-2c0-.6.2-1.3.3-1.9.1-.6.3-1.3.5-1.9.2-.6.4-1.2.7-1.8.2-.6.5-1.2.8-1.8.3-.6.6-1.1,1-1.7.4-.6.8-1.1,1.2-1.6.4-.5.9-1,1.3-1.5s1-.9,1.5-1.3c.5-.4,1-.8,1.6-1.2.5-.4,1.1-.7,1.7-1,.6-.3,1.2-.6,1.8-.8.6-.2,1.2-.5,1.8-.7.6-.2,1.3-.3,1.9-.5.6-.1,1.3-.2,1.9-.3,1.3-.1,2.6-.1,3.9,0,.6,0,1.3.2,1.9.3.6.1,1.3.3,1.9.5.6.2,1.2.4,1.8.7s1.2.5,1.8.8c.6.3,1.1.6,1.7,1,.6.4,1.1.8,1.6,1.2.5.4,1,.9,1.5,1.3s.9,1,1.3,1.5c.4.5.8,1,1.2,1.6.4.5.7,1.1,1,1.7.3.6.6,1.2.8,1.8.2.6.5,1.2.7,1.8.2.6.4,1.3.5,1.9.1.6.2,1.3.3,1.9,0,.7.1,1.3.1,2s0,1.3-.1,2c0,.6-.2,1.3-.3,1.9-.1.6-.3,1.3-.5,1.9-.2.6-.4,1.2-.7,1.8s-.5,1.2-.8,1.8c-.3.6-.6,1.1-1,1.7-.4.6-.8,1.1-1.2,1.6-.4.5-.9,1-1.3,1.5s-.9.9-1.5,1.3c-.5.4-1,.8-1.6,1.2-.5.4-1.1.7-1.7,1-.6.3-1.2.6-1.8.8s-1.2.5-1.8.7c-.6.2-1.3.4-1.9.5-.6.1-1.3.2-1.9.3-.6,0-1.3.1-2,.1Z"/>
  <path d="M217,334c-.7,0-1.3,0-2-.1-.6,0-1.3-.2-1.9-.3-.6-.1-1.3-.3-1.9-.5-.6-.2-1.2-.4-1.8-.7-.6-.2-1.2-.5-1.8-.8-.6-.3-1.1-.6-1.7-1-.6-.4-1.1-.8-1.6-1.2-.5-.4-1-.9-1.5-1.3s-.9-1-1.3-1.5c-.4-.5-.8-1-1.2-1.6-.4-.5-.7-1.1-1-1.7-.3-.6-.6-1.2-.8-1.8-.2-.6-.5-1.2-.7-1.8-.2-.6-.3-1.3-.5-1.9-.1-.6-.2-1.3-.3-1.9,0-.7,0-1.3,0-2s0-1.3,0-2c0-.6.2-1.3.3-1.9.1-.6.3-1.3.5-1.9.2-.6.4-1.2.7-1.8.2-.6.5-1.2.8-1.8.3-.6.6-1.1,1-1.7.4-.5.8-1.1,1.2-1.6.4-.5.9-1,1.3-1.5s1-.9,1.5-1.3c.5-.4,1-.8,1.6-1.2.5-.4,1.1-.7,1.7-1,.6-.3,1.2-.6,1.8-.8.6-.2,1.2-.5,1.8-.7.6-.2,1.3-.4,1.9-.5.6-.1,1.3-.2,1.9-.3,1.3-.1,2.6-.1,3.9,0,.6,0,1.3.2,1.9.3.6.1,1.3.3,1.9.5.6.2,1.2.4,1.8.7s1.2.5,1.8.8c.6.3,1.1.6,1.7,1,.6.4,1.1.8,1.6,1.2.5.4,1,.9,1.5,1.3s.9,1,1.3,1.5c.4.5.8,1,1.2,1.6.4.5.7,1.1,1,1.7.3.6.6,1.2.8,1.8.2.6.5,1.2.7,1.8.2.6.4,1.3.5,1.9.1.6.2,1.3.3,1.9,0,.7.1,1.3.1,2s0,1.3-.1,2c0,.6-.2,1.3-.3,1.9-.1.6-.3,1.3-.5,1.9-.2.6-.4,1.2-.7,1.8-.2.6-.5,1.2-.8,1.8-.3.6-.6,1.1-1,1.7-.4.5-.8,1.1-1.2,1.6-.4.5-.9,1-1.3,1.5s-.9.9-1.5,1.3c-.5.4-1,.8-1.6,1.2-.5.4-1.1.7-1.7,1-.6.3-1.2.6-1.8.8s-1.2.5-1.8.7c-.6.2-1.3.3-1.9.5-.6.1-1.3.2-1.9.3-.7,0-1.3.1-2,.1Z"/>
  <path d="M131,334c-.7,0-1.3,0-2-.1-.6,0-1.3-.2-1.9-.3-.6-.1-1.3-.3-1.9-.5-.6-.2-1.2-.4-1.8-.7-.6-.2-1.2-.5-1.8-.8-.6-.3-1.1-.6-1.7-1-.6-.4-1.1-.8-1.6-1.2-.5-.4-1-.9-1.5-1.3s-.9-1-1.3-1.5c-.4-.5-.8-1-1.2-1.6-.4-.5-.7-1.1-1-1.7-.3-.6-.6-1.2-.8-1.8-.2-.6-.5-1.2-.7-1.8-.2-.6-.3-1.3-.5-1.9-.1-.6-.2-1.3-.3-1.9,0-.7,0-1.3,0-2s0-1.3,0-2c0-.6.2-1.3.3-1.9.1-.6.3-1.3.5-1.9.2-.6.4-1.2.7-1.8.2-.6.5-1.2.8-1.8.3-.6.6-1.1,1-1.7.4-.5.8-1.1,1.2-1.6.4-.5.9-1,1.3-1.5s1-.9,1.5-1.3c.5-.4,1-.8,1.6-1.2.5-.4,1.1-.7,1.7-1,.6-.3,1.2-.6,1.8-.8.6-.2,1.2-.5,1.8-.7.6-.2,1.3-.4,1.9-.5.6-.1,1.3-.2,1.9-.3,1.3-.1,2.6-.1,3.9,0,.6,0,1.3.2,1.9.3.6.1,1.3.3,1.9.5.6.2,1.2.4,1.8.7s1.2.5,1.8.8c.6.3,1.1.6,1.7,1,.6.4,1.1.8,1.6,1.2.5.4,1,.9,1.5,1.3s.9,1,1.3,1.5c.4.5.8,1,1.2,1.6.4.5.7,1.1,1,1.7.3.6.6,1.2.8,1.8.2.6.5,1.2.7,1.8.2.6.4,1.3.5,1.9.1.6.2,1.3.3,1.9,0,.7.1,1.3.1,2s0,1.3-.1,2c0,.6-.2,1.3-.3,1.9-.1.6-.3,1.3-.5,1.9-.2.6-.4,1.2-.7,1.8-.2.6-.5,1.2-.8,1.8-.3.6-.6,1.1-1,1.7-.4.5-.8,1.1-1.2,1.6-.4.5-.9,1-1.3,1.5s-.9.9-1.5,1.3c-.5.4-1,.8-1.6,1.2-.5.4-1.1.7-1.7,1-.6.3-1.2.6-1.8.8s-1.2.5-1.8.7c-.6.2-1.3.3-1.9.5-.6.1-1.3.2-1.9.3-.7,0-1.3.1-2,.1Z"/>
  <path d="M217,420c-.7,0-1.3,0-2-.1-.6,0-1.3-.2-1.9-.3-.6-.1-1.3-.3-1.9-.5-.6-.2-1.2-.4-1.8-.7-.6-.2-1.2-.5-1.8-.8-.6-.3-1.1-.6-1.7-1-.6-.4-1.1-.8-1.6-1.2-.5-.4-1-.9-1.5-1.3s-.9-1-1.3-1.5c-.4-.5-.8-1-1.2-1.6-.4-.5-.7-1.1-1-1.7-.3-.6-.6-1.2-.8-1.8-.2-.6-.5-1.2-.7-1.8-.2-.6-.3-1.3-.5-1.9-.1-.6-.2-1.3-.3-1.9,0-.7,0-1.3,0-2s0-1.3,0-2c0-.6.2-1.3.3-1.9.1-.6.3-1.3.5-1.9.2-.6.4-1.2.7-1.8.2-.6.5-1.2.8-1.8.3-.6.6-1.1,1-1.7.4-.5.8-1.1,1.2-1.6.4-.5.9-1,1.3-1.5s1-.9,1.5-1.3c.5-.4,1-.8,1.6-1.2.5-.4,1.1-.7,1.7-1,.6-.3,1.2-.6,1.8-.8.6-.2,1.2-.5,1.8-.7.6-.2,1.3-.4,1.9-.5.6-.1,1.3-.2,1.9-.3,1.3-.1,2.6-.1,3.9,0,.6,0,1.3.2,1.9.3.6.1,1.3.3,1.9.5.6.2,1.2.4,1.8.7s1.2.5,1.8.8c.6.3,1.1.6,1.7,1,.6.4,1.1.8,1.6,1.2.5.4,1,.9,1.5,1.3s.9,1,1.3,1.5c.4.5.8,1,1.2,1.6.4.5.7,1.1,1,1.7.3.6.6,1.2.8,1.8.2.6.5,1.2.7,1.8.2.6.4,1.3.5,1.9.1.6.2,1.3.3,1.9,0,.7.1,1.3.1,2s0,1.3-.1,2c0,.6-.2,1.3-.3,1.9-.1.6-.3,1.3-.5,1.9-.2.6-.4,1.2-.7,1.8-.2.6-.5,1.2-.8,1.8-.3.6-.6,1.1-1,1.7-.4.5-.8,1.1-1.2,1.6-.4.5-.9,1-1.3,1.5s-.9.9-1.5,1.3c-.5.4-1,.8-1.6,1.2-.5.4-1.1.7-1.7,1-.6.3-1.2.6-1.8.8s-1.2.5-1.8.7c-.6.2-1.3.3-1.9.5-.6.1-1.3.2-1.9.3-.7,0-1.3.1-2,.1Z"/>
  <path d="M131,420c-.7,0-1.3,0-2-.1-.6,0-1.3-.2-1.9-.3-.6-.1-1.3-.3-1.9-.5-.6-.2-1.2-.4-1.8-.7-.6-.2-1.2-.5-1.8-.8-.6-.3-1.1-.6-1.7-1-.6-.4-1.1-.8-1.6-1.2-.5-.4-1-.9-1.5-1.3s-.9-1-1.3-1.5c-.4-.5-.8-1-1.2-1.6-.4-.5-.7-1.1-1-1.7-.3-.6-.6-1.2-.8-1.8-.2-.6-.5-1.2-.7-1.8-.2-.6-.3-1.3-.5-1.9-.1-.6-.2-1.3-.3-1.9,0-.7,0-1.3,0-2s0-1.3,0-2c0-.6.2-1.3.3-1.9.1-.6.3-1.3.5-1.9.2-.6.4-1.2.7-1.8.2-.6.5-1.2.8-1.8.3-.6.6-1.1,1-1.7.4-.5.8-1.1,1.2-1.6.4-.5.9-1,1.3-1.5s1-.9,1.5-1.3c.5-.4,1-.8,1.6-1.2.5-.4,1.1-.7,1.7-1,.6-.3,1.2-.6,1.8-.8.6-.2,1.2-.5,1.8-.7.6-.2,1.3-.4,1.9-.5.6-.1,1.3-.2,1.9-.3,1.3-.1,2.6-.1,3.9,0,.6,0,1.3.2,1.9.3.6.1,1.3.3,1.9.5.6.2,1.2.4,1.8.7s1.2.5,1.8.8c.6.3,1.1.6,1.7,1,.6.4,1.1.8,1.6,1.2.5.4,1,.9,1.5,1.3s.9,1,1.3,1.5c.4.5.8,1,1.2,1.6.4.5.7,1.1,1,1.7.3.6.6,1.2.8,1.8.2.6.5,1.2.7,1.8.2.6.4,1.3.5,1.9.1.6.2,1.3.3,1.9,0,.7.1,1.3.1,2s0,1.3-.1,2c0,.6-.2,1.3-.3,1.9-.1.6-.3,1.3-.5,1.9-.2.6-.4,1.2-.7,1.8-.2.6-.5,1.2-.8,1.8-.3.6-.6,1.1-1,1.7-.4.5-.8,1.1-1.2,1.6-.4.5-.9,1-1.3,1.5s-.9.9-1.5,1.3c-.5.4-1,.8-1.6,1.2-.5.4-1.1.7-1.7,1-.6.3-1.2.6-1.8.8s-1.2.5-1.8.7c-.6.2-1.3.3-1.9.5-.6.1-1.3.2-1.9.3-.7,0-1.3.1-2,.1Z"/>
  <path d="M364,458c-52.4,0-95-42.6-95-95s42.6-95,95-95,95,42.6,95,95-42.6,95-95,95ZM364,308c-30.3,0-55,24.7-55,55s24.7,55,55,55,55-24.7,55-55-24.7-55-55-55Z"/>
  <path d="M492,512c-5.1,0-10.2-2-14.1-5.9l-28-28c-7.8-7.8-7.8-20.5,0-28.3,7.8-7.8,20.5-7.8,28.3,0l28,28c7.8,7.8,7.8,20.5,0,28.3-3.9,3.9-9,5.9-14.1,5.9Z"/>
  <path d="M182,80c-11,0-20-9-20-20s-9-20-20-20-20,9-20,20-9,20-20,20-20-9-20-20C82,26.9,108.9,0,142,0s60,26.9,60,60-9,20-20,20Z"/>
  <path d="M412,80c-11,0-20-9-20-20s-9-20-20-20-20,9-20,20-9,20-20,20-20-9-20-20c0-33.1,26.9-60,60-60s60,26.9,60,60-9,20-20,20Z"/>
</svg>