<?xml version="1.0" encoding="UTF-8"?>
<svg id="Layer_1" xmlns="http://www.w3.org/2000/svg" version="1.1" viewBox="0 0 275 512.1">
  <!-- Generator: Adobe Illustrator 29.1.0, SVG Export Plug-In . SVG Version: 2.1.0 Build 142)  -->
  <path d="M10.5,245.5c2.6,0,5.3,1,7.3,3l254,245.5c4.2,4,4.3,10.7.3,14.9-4,4.2-10.7,4.3-14.9.3L3.2,263.7c-4.2-4-4.3-10.7-.3-14.9,2.1-2.3,4.8-3.3,7.6-3.3h0Z"/>
  <path d="M264.5,0c2.8,0,5.5,1.1,7.6,3.2,4,4.2,3.9,10.9-.3,14.9L17.8,263.6c-4.2,4-10.9,3.9-14.9-.3s-3.9-10.9.3-14.9L257.2,3C259.2,1,261.9,0,264.5,0Z"/>
</svg>